<?xml version="1.0" standalone="no"?>
<!DOCTYPE svg PUBLIC "-//W3C//DTD SVG 20010904//EN"
 "http://www.w3.org/TR/2001/REC-SVG-20010904/DTD/svg10.dtd">
<svg version="1.0" xmlns="http://www.w3.org/2000/svg"
 width="736.000000pt" height="736.000000pt" viewBox="0 0 736.000000 736.000000"
 preserveAspectRatio="xMidYMid meet">

<g transform="translate(0.000000,736.000000) scale(0.100000,-0.100000)"
fill="#000000" stroke="none">
<path d="M0 3680 l0 -3680 3680 0 3680 0 0 3680 0 3680 -3680 0 -3680 0 0
-3680z m4060 1835 c0 -8 -4 -15 -10 -15 -5 0 -7 7 -4 15 4 8 8 15 10 15 2 0 4
-7 4 -15z m354 -10 c3 -8 1 -15 -4 -15 -6 0 -10 7 -10 15 0 8 2 15 4 15 2 0 6
-7 10 -15z m-616 -282 c-10 -2 -26 -2 -35 0 -10 3 -2 5 17 5 19 0 27 -2 18 -5z
m-90 -10 c-10 -2 -28 -2 -40 0 -13 2 -5 4 17 4 22 1 32 -1 23 -4z m-71 -9 c-3
-3 -12 -4 -19 -1 -8 3 -5 6 6 6 11 1 17 -2 13 -5z m-117 -13 c0 -5 -10 -12
-22 -16 -21 -6 -21 -7 10 -16 23 -7 32 -15 28 -25 -3 -8 0 -14 8 -14 8 0 16
-7 20 -15 3 -8 12 -15 21 -15 8 0 15 7 15 15 0 8 8 15 18 15 14 0 15 -2 2 -10
-12 -8 -12 -10 3 -16 9 -3 25 -3 34 0 15 6 15 8 3 16 -12 8 -12 10 -1 10 11 0
11 3 1 15 -9 11 -10 15 -1 15 7 0 19 -7 27 -15 9 -8 20 -15 25 -15 5 0 12 7
15 15 4 8 11 15 16 15 6 0 5 -6 -2 -15 -10 -12 -10 -15 4 -15 9 0 16 -7 16
-15 0 -11 11 -15 40 -15 22 0 40 -4 40 -10 0 -5 18 -10 40 -10 28 0 40 -4 40
-14 0 -8 -6 -17 -12 -19 -10 -4 -10 -6 -1 -6 17 -1 45 41 33 49 -6 4 -4 14 5
26 15 19 15 19 30 -1 9 -12 12 -21 5 -23 -6 -2 -7 -10 0 -22 8 -15 5 -22 -12
-35 -19 -13 -21 -17 -8 -25 8 -5 11 -13 6 -17 -5 -4 -11 -2 -13 5 -8 20 -47
13 -66 -13 -10 -14 -13 -25 -7 -25 16 0 12 -37 -5 -44 -8 -3 -15 -1 -15 4 0
18 -18 10 -23 -10 -7 -26 8 -81 25 -91 7 -4 18 -3 25 3 14 12 18 42 4 34 -5
-3 -11 4 -14 16 -6 21 11 44 22 32 3 -3 -1 -9 -8 -13 -7 -5 -9 -10 -4 -12 6
-2 16 -17 24 -34 13 -27 19 -30 64 -31 28 -1 44 0 38 3 -7 2 -13 9 -13 14 0 4
6 6 13 4 7 -3 20 7 29 22 17 27 17 27 18 6 0 -13 6 -23 14 -23 8 0 17 -8 19
-17 3 -10 6 0 7 22 2 41 4 40 14 -8 5 -23 10 -26 25 -18 12 7 22 6 29 -1 8 -8
13 -3 18 17 6 24 8 25 17 10 8 -14 11 -15 18 -4 7 11 9 11 9 -2 0 -9 11 -24
25 -33 14 -9 25 -23 25 -31 0 -18 -39 -35 -78 -35 -27 -1 -27 -1 6 -15 32 -14
43 -40 20 -48 -14 -4 62 -87 80 -87 5 0 12 -6 15 -13 6 -16 -39 -11 -62 7 -11
8 -15 8 -18 -1 -9 -25 -24 -13 -19 15 3 15 2 34 -4 42 -5 8 -10 10 -10 4 0 -6
-12 -24 -26 -39 l-27 -29 31 -27 c33 -30 105 -54 125 -43 8 5 8 2 -1 -7 -7 -8
-29 -14 -47 -14 -19 0 -34 -4 -34 -10 0 -5 11 -9 25 -8 19 1 24 -2 20 -12 -3
-10 1 -15 13 -15 11 0 22 6 24 13 4 9 6 9 6 -1 2 -23 -27 -24 -85 -4 -50 17
-54 21 -38 30 16 10 17 11 2 12 -9 0 -18 -5 -20 -10 -2 -6 -53 -11 -118 -13
-112 -3 -118 -4 -202 -45 -102 -49 -148 -97 -203 -208 -32 -65 -37 -84 -37
-142 2 -129 47 -276 105 -342 41 -46 106 -91 169 -117 52 -21 81 -26 163 -27
93 -1 105 1 166 30 67 32 92 57 162 164 35 53 67 158 69 223 1 19 4 24 9 15 5
-7 6 -20 3 -30 -6 -19 7 -29 61 -45 36 -10 37 -11 11 -12 -26 -1 -28 -3 -22
-31 3 -17 1 -30 -4 -30 -6 0 -10 5 -10 10 0 6 -7 10 -16 10 -9 0 -14 -7 -12
-17 3 -14 13 -18 46 -18 23 0 42 -4 42 -10 1 -5 8 2 16 18 15 28 39 36 47 15
3 -7 8 1 12 19 10 43 35 33 35 -15 0 -19 3 -32 7 -28 4 4 10 68 13 144 l7 137
1 -157 2 -158 -23 0 c-13 0 -29 -6 -36 -12 -10 -11 -11 -10 -6 5 9 21 2 21
-38 0 -18 -9 -36 -16 -42 -14 -5 1 -4 -3 3 -10 9 -10 15 -10 24 -1 7 7 19 12
28 12 10 0 8 -6 -10 -19 -13 -11 -29 -17 -34 -14 -5 4 -6 1 -2 -6 5 -7 1 -20
-6 -29 -53 -62 -75 -193 -43 -255 8 -15 10 -25 5 -22 -18 11 -50 88 -50 118 0
36 -27 61 -46 43 -19 -19 -23 -99 -6 -112 8 -6 12 -16 8 -22 -10 -17 -26 -15
-26 4 0 25 -108 15 -137 -12 -24 -22 -30 -44 -13 -44 6 0 10 -9 10 -20 0 -31
-17 -24 -23 10 -5 20 -12 30 -25 30 -9 0 -25 9 -35 20 -14 17 -55 27 -89 21
-5 0 -8 8 -8 18 0 15 -9 20 -43 22 -38 4 -43 2 -39 -13 2 -10 -1 -18 -7 -18
-6 0 -11 5 -11 10 0 6 -9 10 -20 10 -11 0 -20 -3 -20 -7 0 -5 -26 -7 -57 -7
-32 1 -62 -1 -66 -3 -17 -10 29 -32 66 -33 20 0 37 -4 37 -10 0 -5 -12 -10
-26 -10 -14 0 -32 -7 -40 -15 -17 -17 -59 -21 -49 -5 9 15 -38 30 -48 16 -5
-7 -14 -3 -27 14 -10 14 -15 26 -10 28 15 5 -13 42 -32 42 -10 0 -22 -9 -28
-20 -8 -14 -8 -20 0 -20 7 0 7 -6 0 -21 -15 -27 -35 -19 -36 15 -1 26 -24 63
-24 39 0 -6 -9 -13 -20 -16 -11 -3 -20 -10 -20 -17 0 -7 9 -14 20 -17 27 -7
25 -23 -3 -23 -13 0 -28 -5 -35 -12 -6 -6 -15 -8 -19 -4 -4 4 -1 11 7 16 8 6
11 10 5 10 -5 -1 -19 -7 -30 -16 -17 -13 -18 -16 -5 -25 13 -8 13 -11 -2 -23
-10 -7 -18 -19 -18 -27 0 -8 -5 -5 -14 7 -14 19 -15 19 -38 -2 -13 -12 -33
-27 -46 -33 -12 -7 -20 -16 -17 -22 14 -21 -12 -6 -29 18 -14 18 -16 28 -8 31
9 3 8 8 -2 18 -16 16 -36 19 -36 5 0 -5 -9 -7 -20 -4 -11 3 -20 0 -20 -6 0
-10 14 -15 33 -12 11 2 8 -12 -7 -34 -7 -11 -18 -33 -23 -50 l-10 -30 -17 32
c-16 31 -17 32 -34 15 -13 -12 -14 -18 -5 -20 22 -6 14 -32 -9 -32 -21 -1 -21
-2 -5 -11 9 -5 21 -7 27 -4 5 3 12 -6 16 -20 3 -14 14 -30 23 -35 13 -9 12
-10 -9 -8 -14 2 -31 -4 -38 -12 -10 -13 -11 -12 -5 4 5 15 3 18 -9 14 -15 -6
-38 8 -38 24 0 4 7 8 16 8 8 0 13 -4 10 -8 -2 -4 4 -8 15 -8 10 0 19 7 19 14
0 11 -9 13 -38 10 l-38 -6 -61 112 c-58 104 -99 202 -143 338 -56 171 -61 417
-14 678 31 172 85 310 165 420 26 36 60 86 75 112 66 107 157 229 192 255 20
16 45 35 55 43 28 24 127 48 127 31z m600 -97 c11 -10 11 -14 1 -14 -8 0 -6
-9 8 -29 26 -36 17 -46 -21 -23 -23 14 -32 14 -48 4 -12 -7 -20 -8 -20 -2 0 5
-10 10 -22 11 l-23 0 21 9 c25 10 41 30 25 30 -7 0 -7 7 1 20 14 23 51 20 78
-6z m-212 -11 c-10 -2 -28 -2 -40 0 -13 2 -5 4 17 4 22 1 32 -1 23 -4z m332
-49 c0 -14 -31 -34 -54 -34 -19 0 -26 5 -26 20 0 17 7 20 40 20 22 0 40 -3 40
-6z m-244 -31 c-10 -10 -19 5 -10 18 6 11 8 11 12 0 2 -7 1 -15 -2 -18z m112
-51 c15 12 16 11 4 -4 -8 -9 -20 -14 -28 -11 -16 6 -16 6 -7 30 7 16 8 15 11
-5 3 -20 6 -21 20 -10z m296 19 c3 -5 -3 -11 -15 -14 -16 -4 -18 -3 -8 9 13
16 16 17 23 5z m-411 -21 c-3 -12 -8 -19 -11 -16 -5 6 5 36 12 36 2 0 2 -9 -1
-20z m-33 4 c0 -3 -7 -12 -15 -20 -12 -13 -15 -13 -15 -1 0 7 3 17 7 20 8 8
23 9 23 1z m327 0 c-3 -3 -12 -4 -19 -1 -8 3 -5 6 6 6 11 1 17 -2 13 -5z m10
-46 c-3 -8 -6 -5 -6 6 -1 11 2 17 5 13 3 -3 4 -12 1 -19z m-296 -45 c-12 -20
-14 -14 -5 12 4 9 9 14 11 11 3 -2 0 -13 -6 -23z m-41 -9 c0 -8 8 -14 17 -14
15 0 14 -2 -3 -15 -27 -21 -30 -19 -31 20 -1 19 3 32 8 29 5 -3 9 -12 9 -20z
m405 16 c-3 -5 -12 -10 -18 -10 -7 0 -6 4 3 10 19 12 23 12 15 0z m-5 -40 c0
-5 -4 -10 -10 -10 -5 0 -10 5 -10 10 0 6 5 10 10 10 6 0 10 -4 10 -10z m-32
-17 c-2 -11 5 -19 17 -21 11 -2 25 -9 30 -14 7 -7 2 -8 -14 -3 -15 5 -27 2
-33 -6 -8 -11 -9 -10 -4 3 3 10 1 20 -4 23 -5 3 -7 12 -3 20 7 20 15 19 11 -2z
m449 -65 c-3 -7 -5 -2 -5 12 0 14 2 19 5 13 2 -7 2 -19 0 -25z m-387 -13 c11
-13 10 -14 -4 -9 -9 3 -16 10 -16 15 0 13 6 11 20 -6z m1543 -25 c-3 -12 -8
-19 -11 -16 -5 6 5 36 12 36 2 0 2 -9 -1 -20z m-1150 -44 c3 -30 1 -43 -4 -35
-8 13 -13 97 -5 88 2 -2 6 -26 9 -53z m1367 40 c0 -3 -4 -8 -10 -11 -5 -3 -10
-1 -10 4 0 6 5 11 10 11 6 0 10 -2 10 -4z m-238 -112 c-3 -26 -13 -63 -24 -83
-11 -21 -16 -26 -11 -11 4 14 7 35 8 48 0 12 3 22 8 22 4 0 7 9 7 19 0 19 9
51 15 51 1 0 0 -21 -3 -46z m-1188 24 c-3 -4 -11 -5 -19 -1 -21 7 -19 12 4 10
11 0 18 -5 15 -9z m1242 -66 c-15 -15 -16 -14 -16 8 0 20 2 22 10 10 8 -12 10
-12 11 5 0 12 3 15 6 7 3 -8 -2 -21 -11 -30z m-1586 -2 c0 -5 -2 -10 -4 -10
-3 0 -8 5 -11 10 -3 6 -1 10 4 10 6 0 11 -4 11 -10z m327 -22 c-3 -8 -6 -5 -6
6 -1 11 2 17 5 13 3 -3 4 -12 1 -19z m-300 -63 c0 -11 -4 -12 -14 -4 -7 6 -13
13 -13 15 0 2 6 4 13 4 8 0 14 -7 14 -15z m-67 -65 c13 -8 13 -10 -2 -10 -9 0
-20 5 -23 10 -8 13 5 13 25 0z m1550 -15 c8 -10 10 -19 4 -25 -5 -5 -14 1 -21
16 -12 27 -2 32 17 9z m-37 -30 c-7 -21 -13 -19 -13 6 0 11 4 18 10 14 5 -3 7
-12 3 -20z m-1418 -84 c3 -5 1 -12 -5 -16 -5 -3 -10 1 -10 9 0 18 6 21 15 7z
m15 -43 c0 6 4 12 9 12 5 0 4 -11 -2 -24 -12 -25 -27 -17 -27 14 0 13 1 13 10
0 6 -10 10 -11 10 -2z m26 -53 c0 -19 -3 -35 -7 -35 -4 0 -5 -10 -1 -22 3 -14
2 -19 -6 -14 -16 9 -15 61 0 86 7 11 13 20 13 20 1 0 1 -16 1 -35z m1330 -2
c-11 -11 -17 4 -9 23 7 18 8 18 11 1 2 -10 1 -21 -2 -24z m-757 -90 c-1 -52
-3 -60 -8 -33 -6 34 -3 100 5 100 2 0 3 -30 3 -67z m774 -93 c17 -5 42 -10 56
-10 14 0 22 -4 16 -8 -12 -9 -18 -32 -7 -31 26 4 46 -6 83 -41 23 -22 56 -45
74 -51 21 -8 37 -23 47 -48 14 -33 14 -37 -1 -51 -9 -8 -25 -32 -36 -52 -11
-21 -27 -38 -36 -38 -10 0 -19 -3 -21 -7 -1 -5 -29 -21 -60 -36 -31 -16 -58
-32 -60 -36 -6 -14 -118 -49 -118 -37 0 6 -6 4 -13 -5 -14 -18 -87 -33 -87
-18 0 6 -4 7 -10 4 -5 -3 -10 -14 -10 -23 0 -10 -9 -23 -20 -30 -17 -10 -20
-10 -20 2 0 8 5 18 11 21 6 4 8 13 5 20 -6 17 22 131 95 380 17 55 35 118 41
140 18 62 22 64 32 13 8 -40 14 -49 39 -58z m-1267 -27 c-3 -3 -13 -2 -23 2
-17 7 -17 8 2 15 19 7 34 -5 21 -17z m191 -30 c-3 -10 -5 -4 -5 12 0 17 2 24
5 18 2 -7 2 -21 0 -30z m1631 -133 c33 -21 40 -44 19 -71 -16 -22 -108 -33
-144 -17 -32 13 -63 38 -63 48 0 14 51 41 93 50 61 12 59 12 95 -10z m-1395
-63 c2 -41 1 -44 -16 -35 -11 5 -16 16 -13 25 3 8 9 26 12 39 9 34 14 25 17
-29z m37 -103 c0 -6 7 -17 15 -24 13 -10 15 -9 16 11 1 18 3 19 6 6 3 -10 -1
-25 -8 -33 -11 -14 -16 -9 -36 32 -13 26 -23 50 -23 53 0 10 29 -34 30 -45z
m27 24 c-3 -8 -6 -5 -6 6 -1 11 2 17 5 13 3 -3 4 -12 1 -19z m12 -235 c-4
-131 -7 -152 -26 -183 -12 -19 -30 -50 -39 -68 -11 -22 -22 -31 -32 -27 -9 3
-12 0 -9 -8 6 -15 -29 -41 -43 -32 -6 3 -7 -1 -4 -9 6 -14 -5 -21 -28 -17 -5
0 -8 -6 -8 -14 0 -8 -7 -15 -15 -15 -8 0 -15 -6 -15 -13 0 -8 -9 -22 -20 -32
-22 -20 -24 -17 -11 17 5 13 20 69 33 125 12 57 27 103 31 103 5 0 5 -10 2
-21 -5 -15 -4 -19 4 -15 6 4 11 2 11 -3 0 -6 7 -11 15 -11 14 0 18 10 13 28
-2 4 -7 6 -12 4 -4 -1 -5 9 -2 23 4 14 2 25 -4 25 -5 0 -10 -4 -10 -10 0 -5
-4 -10 -10 -10 -14 0 -12 46 5 109 8 30 12 58 9 62 -2 4 0 10 6 14 5 3 10 -1
10 -9 0 -9 4 -16 9 -16 5 0 11 -6 14 -12 2 -7 2 -2 0 12 -2 14 -11 31 -20 37
-9 7 -14 16 -10 19 11 11 56 -49 68 -90 12 -45 4 -131 -17 -163 -20 -31 -17
-45 7 -41 14 2 33 22 53 58 31 54 31 57 31 193 0 75 4 137 9 137 4 0 7 -66 5
-147z m-1066 50 c-7 -2 -13 -11 -13 -19 0 -8 -9 -14 -20 -14 -11 0 -20 6 -20
14 0 8 -6 17 -12 19 -7 3 7 5 32 5 25 0 39 -2 33 -5z m147 -17 c0 -7 -8 -16
-19 -19 -14 -3 -17 0 -14 14 6 22 33 26 33 5z m31 -59 c-8 -8 -11 -3 -11 19 1
25 2 27 11 11 8 -14 8 -22 0 -30z m245 28 c-4 -24 -16 -30 -16 -7 0 12 4 22 9
22 5 0 8 -7 7 -15z m160 -27 c22 -17 31 -28 21 -25 -10 4 -25 7 -33 7 -9 0
-13 4 -10 9 3 5 -1 11 -9 15 -8 3 -15 10 -15 16 0 15 3 13 46 -22z m1024 22
c0 -5 -5 -10 -11 -10 -5 0 -7 5 -4 10 3 6 8 10 11 10 2 0 4 -4 4 -10z m-1248
-35 c2 -19 3 -35 2 -35 -1 0 -9 -3 -17 -6 -11 -4 -14 2 -14 22 0 16 -6 30 -12
32 -16 5 -3 22 18 22 14 0 20 -9 23 -35z m178 5 c0 -5 -4 -10 -10 -10 -5 0
-10 5 -10 10 0 6 5 10 10 10 6 0 10 -4 10 -10z m-1024 -47 c-8 -15 -27 -43
-43 -61 -21 -25 -33 -31 -50 -26 -13 4 -23 10 -23 15 0 5 6 6 14 3 7 -3 27 11
44 30 17 20 36 36 41 36 5 0 13 9 16 21 4 11 9 18 12 16 2 -3 -2 -18 -11 -34z
m1031 11 c5 -16 -29 -27 -38 -12 -4 6 -5 16 -2 21 7 11 35 5 40 -9z m124 -37
c-5 -37 -6 -38 -9 -12 -2 17 -8 35 -14 40 -7 7 -8 2 -3 -14 6 -21 5 -22 -8
-10 -9 9 -12 18 -6 25 5 6 6 13 4 16 -3 3 5 3 17 1 21 -4 23 -9 19 -46z m-241
33 c0 -5 -4 -10 -10 -10 -5 0 -10 5 -10 10 0 6 5 10 10 10 6 0 10 -4 10 -10z
m-2963 -6 c-3 -3 -12 -4 -19 -1 -8 3 -5 6 6 6 11 1 17 -2 13 -5z m5373 -1
c-117 -6 -250 -24 -360 -49 -190 -41 -215 -49 -218 -67 -2 -11 3 -17 17 -17
25 0 51 -26 51 -51 0 -24 -40 -41 -95 -41 -47 0 -104 -15 -235 -62 -52 -19
-142 -49 -200 -66 -180 -53 -204 -62 -233 -82 -15 -10 -31 -16 -36 -13 -5 3
-11 1 -13 -4 -3 -8 -131 3 -148 14 -18 11 -10 23 20 30 17 4 30 11 30 16 0 6
20 19 45 30 25 11 45 22 45 24 0 2 -15 3 -32 2 -18 -1 -35 2 -37 7 -3 10 51
46 99 67 36 15 60 39 60 60 0 12 6 16 20 12 11 -3 20 -1 20 4 0 12 77 43 108
43 12 0 22 5 22 10 0 6 9 10 19 10 11 0 22 6 24 13 4 9 8 9 15 -2 8 -11 14
-11 33 3 13 9 31 16 41 16 10 0 18 6 18 13 0 9 2 9 9 -1 16 -25 376 9 611 59
116 24 138 26 245 26 61 0 85 -2 55 -4z m-5180 -28 c52 -8 115 -19 140 -25 25
-6 68 -15 95 -20 80 -15 211 -45 340 -78 66 -17 147 -36 180 -43 33 -7 53 -14
43 -16 -19 -5 -150 20 -383 72 -88 20 -212 47 -275 60 -151 32 -292 64 -305
70 -11 5 12 3 165 -20z m1970 15 c0 -5 -4 -10 -10 -10 -5 0 -10 5 -10 10 0 6
5 10 10 10 6 0 10 -4 10 -10z m3414 -32 c6 -11 6 -27 -2 -49 l-11 -34 5 33 c4
24 1 39 -13 54 -12 15 -14 20 -4 16 8 -2 19 -11 25 -20z m-3730 -20 c7 -5 4
-8 -6 -8 -12 0 -18 7 -17 23 0 15 2 17 6 7 3 -8 11 -18 17 -22z m246 7 c11
-13 10 -14 -2 -10 -18 7 -35 -12 -40 -44 l-3 -24 -14 26 c-13 24 -12 29 4 47
22 24 38 25 55 5z m1161 -106 l-21 -84 6 80 c3 44 8 91 11 105 5 25 5 25 15 4
7 -16 4 -45 -11 -105z m-251 97 c0 -3 -4 -8 -10 -11 -5 -3 -10 -1 -10 4 0 6 5
11 10 11 6 0 10 -2 10 -4z m200 -13 c0 -49 -23 -230 -31 -242 -7 -12 -8 -4 -5
29 12 105 11 169 -1 158 -10 -8 -13 -6 -13 6 0 9 7 16 15 16 8 0 15 9 15 20 0
11 5 20 10 20 6 0 10 -3 10 -7z m-1270 -35 c0 -6 -7 -5 -15 2 -8 7 -15 17 -15
22 0 6 7 5 15 -2 8 -7 15 -17 15 -22z m1194 17 c-11 -7 -21 -10 -24 -7 -3 4
-9 10 -13 13 -4 3 7 6 24 7 28 1 30 0 13 -13z m180 -46 c-1 -34 -6 -64 -10
-68 -5 -3 -10 -13 -11 -21 -1 -8 -5 -27 -9 -42 -4 -18 -2 -28 5 -28 6 0 11 -8
11 -17 0 -15 -2 -14 -18 3 -14 14 -17 26 -12 44 7 25 23 96 35 158 4 17 8 32
9 32 2 0 2 -28 0 -61z m779 44 c-7 -3 -14 -14 -14 -26 -1 -18 -2 -19 -6 -4 -5
19 16 52 26 41 3 -4 0 -9 -6 -11z m-3813 -6 c19 -3 42 -7 50 -10 15 -6 206
-50 225 -52 6 -1 24 -4 40 -8 17 -4 53 -12 80 -18 102 -21 240 -62 254 -75 12
-11 10 -15 -15 -24 -16 -6 -42 -9 -59 -6 -16 3 -100 12 -185 21 -85 9 -184 22
-220 30 -36 9 -109 24 -162 35 -128 25 -175 40 -193 60 -12 14 -13 19 -3 28
13 11 125 31 143 25 6 -1 26 -4 45 -6z m2000 4 c0 -4 -4 -21 -9 -37 -5 -16
-12 -41 -15 -56 -4 -16 -12 -28 -19 -28 -10 0 -8 16 7 65 12 36 24 65 28 65 5
0 8 -4 8 -9z m-432 -19 c-21 -4 -23 -13 -6 -30 9 -9 9 -15 0 -24 -9 -9 -12 -8
-12 5 0 9 -4 17 -10 17 -6 0 -5 9 1 24 8 17 17 22 28 18 14 -6 14 -7 -1 -10z
m1077 8 c3 -5 1 -10 -4 -10 -6 0 -11 5 -11 10 0 6 2 10 4 10 3 0 8 -4 11 -10z
m159 -12 c-3 -5 -12 -4 -20 3 -19 16 -18 18 6 12 11 -3 17 -9 14 -15z m-897
-25 c-3 -10 -5 -4 -5 12 0 17 2 24 5 18 2 -7 2 -21 0 -30z m193 33 c0 -3 -4
-8 -10 -11 -5 -3 -10 -1 -10 4 0 6 5 11 10 11 6 0 10 -2 10 -4z m618 -24 c2
-12 -2 -29 -8 -39 -10 -16 -11 -16 -6 -1 3 10 1 20 -4 23 -6 4 -10 15 -10 26
0 27 24 19 28 -9z m-111 -4 c-3 -8 -6 -5 -6 6 -1 11 2 17 5 13 3 -3 4 -12 1
-19z m-720 -20 c-3 -8 -6 -5 -6 6 -1 11 2 17 5 13 3 -3 4 -12 1 -19z m197 11
c4 6 13 11 21 11 10 0 11 -9 3 -42 -11 -53 -12 -54 -43 -40 -17 8 -25 8 -25 1
0 -6 -4 -8 -10 -4 -5 3 -2 13 8 23 15 16 18 16 24 2 4 -8 5 3 2 25 -4 27 -2
36 4 26 7 -9 12 -10 16 -2z m149 -6 c-3 -7 -9 -13 -13 -13 -4 0 -10 6 -13 13
-3 7 3 13 13 13 10 0 16 -6 13 -13z m350 10 c-8 -3 -13 -24 -13 -58 0 -46 -3
-53 -22 -58 -27 -7 -34 -2 -21 15 18 23 26 90 12 99 -8 5 1 7 21 7 19 -1 29
-3 23 -5z m-653 -44 c0 -16 -4 -28 -8 -25 -5 3 -8 15 -6 28 3 28 3 28 9 28 3
0 5 -14 5 -31z m206 -27 c-11 -10 -14 3 -8 33 l7 30 3 -28 c2 -16 1 -31 -2
-35z m140 16 c-1 -42 0 -43 33 -46 l34 -3 -7 43 c-4 26 -3 38 2 30 5 -8 13
-14 18 -15 5 -1 9 -15 9 -32 1 -25 5 -31 28 -33 15 -2 27 2 27 8 0 13 27 7 85
-20 59 -28 161 -53 184 -47 12 3 19 2 16 -3 -5 -8 109 -32 164 -34 19 -1 36
-7 39 -14 4 -12 -22 -45 -30 -37 -2 3 -29 7 -59 10 -29 4 -60 8 -67 11 -17 5
-62 -6 -62 -16 0 -4 19 -13 43 -20 23 -7 36 -15 30 -17 -23 -8 -15 -32 9 -25
33 8 13 -16 -28 -33 -23 -10 -34 -20 -34 -35 0 -42 -18 -58 -77 -70 -65 -14
-265 -5 -298 13 -11 6 -32 10 -47 8 -16 -1 -28 2 -28 6 0 5 -50 15 -112 23
-107 13 -198 38 -265 73 -18 9 -40 17 -49 17 -20 0 -80 35 -114 67 -14 13 -34
30 -45 38 -19 14 -19 14 8 15 15 0 27 4 27 9 0 4 -18 7 -40 6 -22 -1 -48 4
-58 11 -15 11 -12 12 23 12 22 0 60 1 85 3 70 4 -164 16 -390 20 -113 2 -167
4 -120 6 47 1 157 7 245 12 275 18 345 21 533 22 l182 1 2 37 1 36 4 -37 c4
-36 6 -38 39 -38 29 0 34 3 34 24 0 14 5 28 11 32 8 4 7 9 -2 15 -11 7 -11 9
2 9 12 0 16 -10 15 -42z m34 22 c0 -5 -2 -10 -4 -10 -3 0 -8 5 -11 10 -3 6 -1
10 4 10 6 0 11 -4 11 -10z m109 -33 c0 -21 -1 -21 -9 -2 -12 28 -12 37 0 30 6
-3 10 -16 9 -28z m-412 1 c-3 -8 -6 -5 -6 6 -1 11 2 17 5 13 3 -3 4 -12 1 -19z
m210 0 c-3 -8 -6 -5 -6 6 -1 11 2 17 5 13 3 -3 4 -12 1 -19z m523 12 c0 -5 -5
-10 -11 -10 -5 0 -7 5 -4 10 3 6 8 10 11 10 2 0 4 -4 4 -10z m-268 -32 c-9 -9
-12 -7 -12 12 0 19 3 21 12 12 9 -9 9 -15 0 -24z m-3252 18 c0 -2 -7 -7 -16
-10 -8 -3 -12 -2 -9 4 6 10 25 14 25 6z m2316 -18 c-9 -5 -23 -5 -32 0 -12 6
-7 9 16 9 23 0 28 -3 16 -9z m151 6 c-3 -3 -12 -4 -19 -1 -8 3 -5 6 6 6 11 1
17 -2 13 -5z m-641 -45 c8 -14 -30 -10 -51 4 -16 13 -15 14 14 9 17 -2 34 -8
37 -13z m-161 -29 c8 -13 -20 -24 -41 -16 -20 8 -9 26 16 26 10 0 22 -5 25
-10z m-778 -6 c-3 -3 -12 -4 -19 -1 -8 3 -5 6 6 6 11 1 17 -2 13 -5z m2876
-24 c-3 -11 -7 -20 -9 -20 -2 0 -4 9 -4 20 0 11 4 20 9 20 5 0 7 -9 4 -20z
m-3813 0 c0 -5 -5 -10 -11 -10 -5 0 -7 5 -4 10 3 6 8 10 11 10 2 0 4 -4 4 -10z
m4483 -7 c-7 -2 -19 -2 -25 0 -7 3 -2 5 12 5 14 0 19 -2 13 -5z m-373 -34
c-30 -5 -111 -13 -179 -18 -79 -5 -126 -13 -131 -21 -6 -9 -10 -6 -15 9 -3 11
-4 24 -2 28 3 5 90 8 194 9 133 1 172 -1 133 -7z m-4121 -42 c-5 -20 -12 -37
-15 -37 -6 0 5 59 13 73 11 18 12 -1 2 -36z m3751 -7 c0 -5 -10 -10 -22 -10
-19 0 -20 2 -8 10 19 13 30 13 30 0z m-50 -24 c0 -2 -7 -6 -15 -10 -8 -3 -15
-1 -15 4 0 6 7 10 15 10 8 0 15 -2 15 -4z m-3710 -56 c0 -22 -3 -40 -7 -40 -5
0 -7 15 -6 32 2 47 2 48 8 48 3 0 5 -18 5 -40z m688 13 c-3 -14 -68 -61 -68
-48 0 7 55 63 63 64 5 0 7 -6 5 -16z m3705 -63 c-3 -12 -8 -19 -11 -16 -5 6 5
36 12 36 2 0 2 -9 -1 -20z m-3793 -30 c0 -5 -4 -10 -10 -10 -5 0 -10 5 -10 10
0 6 5 10 10 10 6 0 10 -4 10 -10z m-600 -10 c0 -5 -4 -10 -10 -10 -5 0 -10 5
-10 10 0 6 5 10 10 10 6 0 10 -4 10 -10z m4372 -22 c-7 -7 -12 -8 -12 -2 0 14
12 26 19 19 2 -3 -1 -11 -7 -17z m-3867 -115 c-5 -10 -13 -37 -19 -60 -15 -53
-31 -70 -21 -23 11 61 26 100 37 100 6 0 7 -7 3 -17z m-352 -164 c4 -85 4
-210 1 -279 -4 -69 -6 -132 -5 -142 1 -9 -2 -19 -7 -22 -16 -9 -30 134 -30
315 -1 205 5 292 22 286 7 -2 14 -57 19 -158z m4407 66 c56 -46 130 -154 130
-190 0 -12 -15 7 -36 45 -20 36 -65 93 -101 128 -75 72 -72 82 7 17z m1457
-17 c-3 -7 -5 -2 -5 12 0 14 2 19 5 13 2 -7 2 -19 0 -25z m-2708 -75 c-1 -87
-14 -126 -16 -47 -1 35 -7 60 -15 66 -10 7 -10 11 4 22 10 7 15 16 11 19 -3 4
-1 7 5 7 8 0 12 -22 11 -67z m2698 20 c-3 -10 -5 -4 -5 12 0 17 2 24 5 18 2
-7 2 -21 0 -30z m-2755 -78 l-4 -80 -14 45 c-18 59 -17 80 3 102 9 10 17 17
17 16 1 -2 0 -39 -2 -83z m1611 -37 c31 -50 137 -278 137 -296 0 -5 9 -27 20
-50 11 -22 20 -49 20 -60 0 -10 4 -22 9 -28 12 -13 51 -144 54 -182 1 -18 4
-32 7 -32 3 0 5 -10 6 -22 0 -13 4 -41 9 -63 l8 -40 -25 26 c-13 14 -31 41
-38 60 -8 19 -16 36 -20 39 -5 5 -29 55 -48 100 -6 14 -18 41 -27 61 -8 19
-38 102 -65 185 -27 82 -63 188 -79 236 -43 125 -26 159 32 66z m-2415 -215
c-10 -2 -26 -2 -35 0 -10 3 -2 5 17 5 19 0 27 -2 18 -5z m2819 -935 c-3 -8 -6
-5 -6 6 -1 11 2 17 5 13 3 -3 4 -12 1 -19z"/>
<path d="M3435 5160 c3 -5 8 -10 11 -10 2 0 4 5 4 10 0 6 -5 10 -11 10 -5 0
-7 -4 -4 -10z"/>
<path d="M3390 5136 c0 -10 28 -13 41 -5 10 6 7 9 -13 9 -16 0 -28 -2 -28 -4z"/>
<path d="M3477 5129 c8 -8 16 -8 30 0 16 9 14 10 -11 11 -22 0 -27 -3 -19 -11z"/>
<path d="M3713 5093 c9 -9 19 -14 23 -11 10 10 -6 28 -24 28 -15 0 -15 -1 1
-17z"/>
<path d="M3835 4949 c-4 -6 -5 -12 -2 -15 2 -3 7 2 10 11 7 17 1 20 -8 4z"/>
<path d="M3850 4936 c0 -2 7 -6 15 -10 8 -3 15 -1 15 4 0 6 -7 10 -15 10 -8 0
-15 -2 -15 -4z"/>
<path d="M3815 4910 c3 -5 8 -10 11 -10 2 0 4 5 4 10 0 6 -5 10 -11 10 -5 0
-7 -4 -4 -10z"/>
<path d="M3776 4891 c-3 -5 -5 -15 -3 -23 2 -7 2 -10 0 -5 -3 4 -14 7 -25 7
-17 0 -19 -4 -14 -27 4 -16 7 -34 8 -41 1 -7 12 -15 24 -18 20 -5 21 -9 12
-29 -7 -15 -16 -22 -27 -18 -11 3 -12 2 -4 -4 27 -20 93 1 93 30 0 5 -8 3 -18
-6 -10 -10 -21 -17 -23 -17 -3 0 -5 21 -6 48 -1 42 0 44 9 20 5 -16 16 -28 23
-28 15 0 27 25 17 35 -4 4 -12 23 -17 43 -10 35 -37 54 -49 33z"/>
<path d="M3663 4859 c-14 -14 22 -95 45 -104 28 -11 30 10 5 63 -27 55 -32 59
-50 41z"/>
<path d="M3613 4813 c-22 -8 -14 -26 28 -71 54 -57 68 -41 23 26 -19 28 -36
52 -37 51 -1 0 -8 -3 -14 -6z"/>
<path d="M3895 4810 c-3 -5 -1 -10 4 -10 6 0 11 5 11 10 0 6 -2 10 -4 10 -3 0
-8 -4 -11 -10z"/>
<path d="M4190 4810 c0 -5 5 -10 11 -10 5 0 7 5 4 10 -3 6 -8 10 -11 10 -2 0
-4 -4 -4 -10z"/>
<path d="M3428 4803 c7 -3 16 -2 19 1 4 3 -2 6 -13 5 -11 0 -14 -3 -6 -6z"/>
<path d="M3559 4763 c12 -23 51 -58 74 -66 31 -11 19 29 -17 57 -41 31 -72 36
-57 9z"/>
<path d="M4200 4771 c0 -5 9 -11 20 -14 13 -3 20 0 20 9 0 8 -9 14 -20 14 -11
0 -20 -4 -20 -9z"/>
<path d="M3475 4750 c-3 -5 -1 -10 4 -10 6 0 11 5 11 10 0 6 -2 10 -4 10 -3 0
-8 -4 -11 -10z"/>
<path d="M3051 4676 c-41 -90 -52 -136 -52 -214 -1 -140 41 -255 117 -322 75
-65 187 -87 266 -52 132 58 187 195 132 332 -26 65 -64 85 -163 85 l-83 0 -53
-57 -54 -58 -21 27 c-11 15 -18 34 -15 42 3 8 3 12 -1 8 -12 -12 -33 41 -39
101 -3 31 -2 80 4 107 15 77 -4 78 -38 1z"/>
<path d="M3500 4723 c1 -15 85 -62 94 -53 4 4 0 20 -10 34 -14 18 -28 25 -51
26 -18 0 -33 -3 -33 -7z"/>
<path d="M3477 4694 c-17 -18 61 -83 83 -69 13 8 13 35 -1 35 -6 0 -22 9 -36
20 -27 21 -36 24 -46 14z"/>
<path d="M4160 4670 c0 -11 6 -20 14 -20 21 0 31 21 15 31 -22 14 -29 11 -29
-11z"/>
<path d="M3426 4652 c-14 -13 -4 -29 29 -45 40 -19 61 -21 69 -8 6 10 -90 62
-98 53z"/>
<path d="M3396 4592 c-9 -15 26 -32 65 -32 29 0 32 2 19 15 -20 19 -76 30 -84
17z"/>
<path d="M3356 4561 c-3 -4 6 -8 20 -9 13 -1 24 0 24 2 0 7 -40 14 -44 7z"/>
<path d="M3350 4530 c-18 -12 -2 -12 25 0 13 6 15 9 5 9 -8 0 -22 -4 -30 -9z"/>
<path d="M4100 4518 c-82 -13 -91 -32 -10 -23 69 7 74 9 69 22 -2 5 -29 5 -59
1z"/>
<path d="M3512 4455 c12 -26 28 -34 28 -12 0 16 -12 31 -27 34 -10 2 -10 -3
-1 -22z"/>
<path d="M3354 4051 c4 -5 -6 -14 -21 -19 -28 -10 -28 -10 8 -11 29 -1 38 3
42 19 4 15 0 20 -15 20 -10 0 -17 -4 -14 -9z"/>
<path d="M3273 4043 c9 -2 23 -2 30 0 6 3 -1 5 -18 5 -16 0 -22 -2 -12 -5z"/>
<path d="M3123 3988 c0 -13 1 -18 3 -12 3 8 17 8 49 1 25 -6 48 -7 52 -3 13
13 -29 36 -67 36 -30 0 -36 -4 -37 -22z"/>
<path d="M3318 4003 c7 -3 16 -2 19 1 4 3 -2 6 -13 5 -11 0 -14 -3 -6 -6z"/>
<path d="M3255 3970 c-3 -5 -1 -10 4 -10 6 0 11 5 11 10 0 6 -2 10 -4 10 -3 0
-8 -4 -11 -10z"/>
<path d="M3155 3941 c-7 -13 35 -31 71 -31 19 0 25 5 22 18 -2 12 -15 18 -45
20 -22 2 -44 -2 -48 -7z"/>
<path d="M4460 3921 c0 -12 5 -21 10 -21 6 0 10 6 10 14 0 8 -4 18 -10 21 -5
3 -10 -3 -10 -14z"/>
<path d="M3190 3891 c-21 -4 -35 -12 -35 -21 0 -16 35 -20 73 -8 12 4 22 4 22
-1 0 -4 -18 -13 -40 -20 -42 -12 -52 -27 -22 -33 38 -8 68 4 78 31 9 23 7 29
-12 44 -13 9 -24 16 -26 16 -2 -1 -19 -4 -38 -8z"/>
<path d="M4452 3870 c0 -14 2 -19 5 -12 2 6 2 18 0 25 -3 6 -5 1 -5 -13z"/>
<path d="M3275 3839 c-11 -16 -1 -19 13 -3 7 8 8 14 3 14 -5 0 -13 -5 -16 -11z"/>
<path d="M4590 3830 c-13 -8 -13 -10 2 -10 9 0 20 5 23 10 8 13 -5 13 -25 0z"/>
<path d="M3260 3800 c0 -5 5 -10 10 -10 6 0 10 5 10 10 0 6 -4 10 -10 10 -5 0
-10 -4 -10 -10z"/>
<path d="M3211 3771 c-33 -9 -40 -31 -9 -30 26 1 79 16 63 18 -5 1 -3 6 5 11
12 8 10 10 -10 9 -14 -1 -36 -4 -49 -8z"/>
<path d="M3130 3743 c0 -10 4 -14 8 -8 4 6 11 13 16 18 5 4 2 7 -7 7 -10 0
-17 -8 -17 -17z"/>
<path d="M3207 3718 c-32 -12 -27 -28 11 -29 26 0 26 -1 5 -9 -13 -5 -23 -14
-23 -21 0 -6 7 -8 16 -5 9 3 26 6 39 6 18 0 23 5 22 20 -1 14 -6 19 -16 15
-11 -4 -10 0 4 15 18 20 18 20 -6 19 -13 0 -36 -5 -52 -11z"/>
<path d="M4377 3716 c-3 -8 0 -17 7 -19 10 -4 12 1 9 14 -6 23 -9 24 -16 5z"/>
<path d="M4481 3714 c0 -11 3 -14 6 -6 3 7 2 16 -1 19 -3 4 -6 -2 -5 -13z"/>
<path d="M4510 3719 c0 -5 5 -7 10 -4 6 3 10 8 10 11 0 2 -4 4 -10 4 -5 0 -10
-5 -10 -11z"/>
<path d="M3130 3690 c6 -11 13 -20 16 -20 2 0 0 9 -6 20 -6 11 -13 20 -16 20
-2 0 0 -9 6 -20z"/>
<path d="M3322 3668 c-7 -7 -12 -16 -12 -22 0 -5 3 -6 6 -3 4 3 14 2 24 -3 14
-8 16 -5 12 15 -5 28 -12 31 -30 13z"/>
<path d="M3232 3635 c-40 -18 -37 -41 4 -38 28 2 28 2 5 -7 -14 -6 -21 -16
-17 -25 3 -8 -2 -18 -10 -23 -12 -7 -10 -11 11 -20 15 -7 23 -17 19 -23 -4 -7
-9 -7 -13 -2 -3 5 -13 12 -22 15 -12 5 -15 -1 -15 -23 0 -16 4 -29 8 -29 5 0
7 9 3 20 -5 15 -3 18 9 14 11 -4 14 -13 9 -32 -4 -17 -2 -23 6 -18 6 4 11 13
11 21 0 7 20 26 44 41 39 25 43 31 35 52 -5 13 -9 28 -9 33 0 16 25 4 26 -12
2 -33 5 -39 14 -39 13 0 8 42 -7 58 -6 6 -19 12 -27 12 -9 0 -16 8 -16 20 0
24 -21 25 -68 5z"/>
<path d="M4271 3606 c-9 -11 -8 -15 5 -20 22 -9 32 2 14 15 -12 8 -11 9 5 7
13 -2 21 -12 23 -31 3 -28 22 -29 22 -1 0 36 -47 56 -69 30z"/>
<path d="M4380 3565 c0 -25 5 -45 10 -45 6 0 10 20 10 45 0 25 -4 45 -10 45
-5 0 -10 -20 -10 -45z"/>
<path d="M3760 3576 c0 -9 5 -16 10 -16 6 0 10 4 10 9 0 6 -4 13 -10 16 -5 3
-10 -1 -10 -9z"/>
<path d="M4223 3574 c9 -3 17 -10 17 -15 0 -13 -37 -11 -46 2 -4 8 -9 7 -14
-2 -7 -10 -12 -10 -23 0 -9 7 -18 8 -21 3 -3 -6 5 -13 19 -16 14 -4 25 -11 25
-16 0 -6 10 -10 23 -9 21 0 21 1 2 9 -16 7 -12 9 18 9 31 1 38 4 35 19 -2 10
-13 18 -28 19 -15 1 -18 0 -7 -3z"/>
<path d="M4098 3553 c7 -3 16 -2 19 1 4 3 -2 6 -13 5 -11 0 -14 -3 -6 -6z"/>
<path d="M4060 3540 c-13 -8 -12 -10 3 -10 9 0 17 5 17 10 0 12 -1 12 -20 0z"/>
<path d="M4118 3521 c-18 -18 -15 -31 8 -31 6 0 14 11 16 25 6 29 0 31 -24 6z"/>
<path d="M3425 3520 c3 -5 8 -10 11 -10 2 0 4 5 4 10 0 6 -5 10 -11 10 -5 0
-7 -4 -4 -10z"/>
<path d="M3464 3503 c-10 -15 -15 -16 -33 -5 -13 7 -21 8 -21 2 0 -6 7 -13 15
-16 8 -4 15 -13 15 -22 0 -12 -6 -10 -25 8 -14 13 -28 21 -31 17 -3 -3 3 -12
15 -19 12 -7 21 -19 21 -27 0 -17 -50 -64 -51 -48 -1 13 -16 -30 -18 -51 -1
-17 26 -2 67 37 21 19 30 35 26 46 -5 13 -2 15 20 9 20 -5 26 -2 26 10 0 9 7
19 15 22 8 4 15 14 15 24 0 10 6 21 13 23 6 3 -4 6 -23 6 -23 1 -39 -5 -46
-16z"/>
<path d="M3760 3510 c0 -5 4 -10 9 -10 6 0 13 5 16 10 3 6 -1 10 -9 10 -9 0
-16 -4 -16 -10z"/>
<path d="M3291 3474 c-43 -33 -41 -41 9 -34 11 1 10 -3 -5 -21 -18 -20 -18
-22 -2 -16 10 4 21 7 23 7 2 0 4 7 4 16 0 9 10 24 22 33 13 11 19 24 15 34 -9
23 -15 21 -66 -19z"/>
<path d="M3359 3447 c-26 -20 -41 -55 -28 -63 7 -4 16 1 21 10 5 9 14 16 19
16 16 0 36 24 31 38 -5 15 -22 15 -43 -1z"/>
<path d="M3225 3420 c-4 -6 -11 -8 -16 -5 -14 10 -11 0 10 -24 l19 -21 6 22
c3 13 6 26 6 31 0 11 -18 9 -25 -3z"/>
<path d="M3460 3400 c0 -5 5 -10 10 -10 6 0 10 5 10 10 0 6 -4 10 -10 10 -5 0
-10 -4 -10 -10z"/>
<path d="M4912 3155 c1 -33 3 -36 11 -18 6 14 5 27 -2 39 -8 16 -10 12 -9 -21z"/>
<path d="M4870 3155 c0 -14 4 -25 9 -25 12 0 19 21 13 38 -8 21 -22 13 -22
-13z"/>
<path d="M4851 3134 c0 -11 3 -14 6 -6 3 7 2 16 -1 19 -3 4 -6 -2 -5 -13z"/>
<path d="M4865 3111 c-3 -5 -1 -12 4 -15 5 -3 11 1 15 9 6 16 -9 21 -19 6z"/>
<path d="M4845 3080 c-3 -5 -1 -10 4 -10 6 0 11 5 11 10 0 6 -2 10 -4 10 -3 0
-8 -4 -11 -10z"/>
<path d="M5510 3020 c0 -13 18 -22 24 -11 3 5 -1 11 -9 15 -8 3 -15 1 -15 -4z"/>
<path d="M3968 3053 c7 -3 16 -2 19 1 4 3 -2 6 -13 5 -11 0 -14 -3 -6 -6z"/>
<path d="M4048 3043 c7 -3 16 -2 19 1 4 3 -2 6 -13 5 -11 0 -14 -3 -6 -6z"/>
</g>
</svg>
